<?xml version="1.0" encoding="UTF-8"?>
<svg width="635px" height="400px" viewBox="0 0 635 400" version="1.1" xmlns="http://www.w3.org/2000/svg" xmlns:xlink="http://www.w3.org/1999/xlink">
    <!-- Generator: Sketch 52.6 (67491) - http://www.bohemiancoding.com/sketch -->
    <title>Path</title>
    <desc>Created with Sketch.</desc>
    <g id="Home-and-Shop" stroke="none" stroke-width="1" fill="none" fill-rule="evenodd">
        <g id="Homepage-" transform="translate(-388.000000, -131.000000)" stroke="#651D5A" stroke-width="7">
            <path d="M755.627581,135 C730.866175,136.70019 706.079333,138.10326 681.348448,140.169137 C639.413029,143.669828 599.57349,154.987077 561.640337,173.153337 C493.641216,205.715981 449.678591,259.860503 421.79244,328.389981 C405.216159,369.128522 396.073388,411.598997 392.128351,455.336678 C391.461942,462.711365 393.272946,466.027942 400.340184,468.379512 C460.840936,488.518958 522.200135,505.164063 585.182114,515.653437 C642.859532,525.259068 700.744248,530.256789 759.17837,524.653399 C788.853905,521.809167 817.925348,516.101657 845.868729,505.37865 C901.218803,484.138334 940.947698,445.888496 968.5477,394.046024 C1003.83811,327.760187 1017.07853,256.368701 1018.99382,182.195201 C1019.1706,175.3919 1015.53969,173.285391 1010.04945,171.981361 C985.402498,166.125291 960.946317,159.310563 936.102245,154.475369 C876.571855,142.892743 816.461538,136.194831 755.627581,135" id="Path"></path>
        </g>
    </g>
</svg>