<svg xmlns="http://www.w3.org/2000/svg" width="97" height="63" viewBox="0 0 97 63">
    <g fill="#651D5A" fill-rule="evenodd">
        <path d="M22.072 45.419v-3.006H18.82v-2.78h3.25v-3.005h3.025v3.005h3.251v2.78h-3.25v3.006zM37.729 48.349l-4.985-14.651h3.915l3.007 10.275h.04l3.027-10.275h3.935l-5.005 14.65zM48.134 48.349V33.698h8.06v3.286h-4.51v2.277h4.373v3.287h-4.373v2.514h4.51v3.287zM74.515 40.842c0 3.792-2.851 7.507-7.714 7.507-4.277 0-7.675-3.258-7.675-7.392 0-4.268 3.535-7.26 7.734-7.26 3.261 0 6.405 2.154 7.226 4.992h-4.14c-.684-1.162-1.797-1.829-3.184-1.829-2.324 0-3.945 1.83-3.945 4.097 0 2.343 1.523 4.23 3.965 4.23 1.718 0 3.007-.82 3.456-2.268h-4.316v-2.877h8.593v.8zM26.882 30.767v-14.65h7.328v3.286h-4.045v2.495h3.9v3.286h-3.9v5.583zM41.249 23.481c1.446 0 2.333-.692 2.333-2.098 0-1.267-.925-1.98-2.294-1.98h-1.389v4.078h1.35zm1.986 7.286l-3.297-4.731h-.039v4.731h-3.49v-14.65h4.666c1.485 0 2.623.197 3.375.534 1.543.713 2.623 2.435 2.623 4.514 0 2.316-1.35 4.217-3.548 4.613l3.876 4.99h-4.166zM56.201 16.116h3.658v8.803c0 1.496-.232 2.623-.716 3.4-.948 1.535-2.555 2.448-4.722 2.448-1.2 0-2.226-.233-3.058-.719-1.684-.99-2.497-2.331-2.497-5.11v-8.822h3.658v8.764c0 1.787.561 2.662 1.858 2.662 1.239 0 1.82-.622 1.82-2.643v-8.783zM62.057 30.767h4.397v-14.65h-4.397zM70.595 30.767V19.403H67.92v-3.287h8.794v3.287h-2.657v11.364z"/>
        <path d="M55.638 3.86c-3.47.239-6.942.436-10.407.726-5.876.491-11.458 2.08-16.773 4.63C18.93 13.788 12.77 21.39 8.863 31.011 6.541 36.73 5.26 42.693 4.707 48.833c-.093 1.036.16 1.501 1.15 1.831 8.478 2.828 17.075 5.165 25.9 6.637 8.08 1.349 16.191 2.05 24.379 1.264 4.158-.4 8.23-1.2 12.146-2.706 7.755-2.982 13.322-8.352 17.189-15.63 4.945-9.307 6.8-19.33 7.068-29.743.025-.955-.484-1.251-1.253-1.434-3.453-.822-6.88-1.779-10.361-2.458-8.341-1.626-16.763-2.566-25.287-2.734M50.096 63c-9.51-.2-18.028-1.134-26.36-3.213-6.786-1.693-13.494-3.721-20.187-5.763-3.664-1.118-3.092-.81-2.895-4.18.518-8.874 2.648-17.319 6.741-25.223 3.53-6.817 8.51-12.307 14.91-16.625C29.094 3.415 36.692 1.503 44.632.66 48.96.2 53.339-.073 57.686.017c10.513.218 20.89 1.674 31.125 4.106 2.18.518 4.342 1.107 6.516 1.648.754.188 1.117.565 1.14 1.415.319 11.875-1.619 23.272-6.95 33.996-3.683 7.406-9.008 13.2-16.424 16.936-5.102 2.57-10.577 3.887-16.249 4.394-2.549.228-5.106.371-6.748.488"/>
    </g>
</svg>
