<svg xmlns="http://www.w3.org/2000/svg" xmlns:xlink="http://www.w3.org/1999/xlink" width="151" height="86" viewBox="0 0 151 86">
    <defs>
        <path id="a" d="M0 .02h150.092v82.005H0z"/>
    </defs>
    <g fill="none" fill-rule="evenodd">
        <g transform="translate(0 1.843)">
            <mask id="b" fill="#fff">
                <use xlink:href="#a"/>
            </mask>
            <path fill="#709126" d="M81.876 82.025c-26.69 0-50.539-9.082-61.681-23.306C9 58.42 0 50.599 0 41.022c0-9.575 9-17.399 20.197-17.695C31.339 9.1 55.186.02 81.876.02c38.253 0 68.218 18.01 68.218 41 0 22.994-29.965 41.004-68.218 41.004" mask="url(#b)"/>
        </g>
        <path stroke="#FFF" d="M81.876 6.052c-27.098 0-50.248 9.683-59.597 23.357-.47-.034-.941-.06-1.422-.06-9.206 0-16.668 6.051-16.668 13.517 0 7.465 7.462 13.516 16.668 13.516.48 0 .952-.026 1.422-.058C31.628 69.996 54.778 79.68 81.876 79.68c35.362 0 64.03-16.483 64.03-36.814 0-20.333-28.668-36.814-64.03-36.814z"/>
        <path fill="#A3CD39" d="M20.14 52.475l-9.609-9.609 9.608-9.61z"/>
        <path fill="#FFF" d="M42.617 33.405v-4.308c0-.875-.298-1.313-.896-1.313a.966.966 0 0 0-.353.05c-.188.05-.34.075-.457.075a.502.502 0 0 1-.387-.175.606.606 0 0 1-.159-.427c0-.427.248-.64.746-.64.06 0 .147.006.265.02l1.224.122c.46.047.975.071 1.542.071.308 0 .97-.017 1.986-.052l2.04-.071c.271-.013.59-.032.957-.054.166-.024.343-.035.531-.035.627 0 .94.277.94.833 0 .212-.028.539-.088.975a8.01 8.01 0 0 0-.09.993c0 .189.012.425.036.709.025.283.036.544.036.78 0 .486-.213.728-.638.728-.438 0-.656-.278-.656-.83 0-.166.01-.417.026-.758.019-.343.028-.595.028-.76 0-.624-.179-1.019-.533-1.183-.354-.164-1.193-.246-2.519-.246-1.122 0-1.76.099-1.912.3-.12.155-.18.697-.18 1.631v1.313c0 .332.045.535.135.613.088.077.334.114.734.114h.586c.768 0 1.152-.284 1.152-.85 0-.13-.015-.308-.043-.533a4.207 4.207 0 0 1-.045-.513c0-.45.213-.675.638-.675.402 0 .602.261.602.781 0 .071-.013.213-.041.425l-.123.957a8.003 8.003 0 0 0-.082.958c0 .484.061 1.1.184 1.843.043.25.062.487.062.71 0 .461-.21.692-.638.692-.4 0-.602-.25-.602-.745 0-.118.01-.295.026-.532a7.18 7.18 0 0 0 .026-.53c0-.368-.098-.605-.3-.711-.13-.082-.402-.125-.816-.125h-.55c-.414 0-.668.048-.763.142-.093.093-.141.352-.141.773v2.094c0 .552.063.924.186 1.116.125.194.358.291.701.291h.78c.544 0 .816.202.816.602a.568.568 0 0 1-.187.427.635.635 0 0 1-.45.175 5.61 5.61 0 0 1-.836-.087 11.468 11.468 0 0 0-1.773-.123c-.425 0-.88.035-1.364.106l-.604.088a.536.536 0 0 0-.123.016h-.107c-.52 0-.78-.21-.78-.637 0-.377.184-.567.55-.567.046 0 .2.011.46.036.13.035.255.052.373.052.32 0 .54-.097.665-.291.125-.196.192-.54.203-1.038v-2.802zM54.585 30.205v.487c.616-.863 1.438-1.294 2.465-1.294.828 0 1.499.233 2.013.701.515.466.77 1.066.77 1.799 0 .52-.129.943-.39 1.268-.259.326-.602.488-1.027.488a1.01 1.01 0 0 1-.691-.25.767.767 0 0 1-.286-.602c0-.188.071-.356.215-.505a.67.67 0 0 1 .496-.222c.035 0 .112.019.23.054a.885.885 0 0 0 .107-.391c0-.342-.15-.632-.453-.87-.302-.236-.677-.353-1.126-.353-.923 0-1.536.414-1.844 1.241-.19.507-.285 1.277-.285 2.304v1.171c0 .792.008 1.236.019 1.331.06.673.242 1.01.55 1.01a2 2 0 0 0 .479-.061 1.53 1.53 0 0 1 .337-.045c.377 0 .567.187.567.558 0 .408-.242.611-.725.611h-.07a7.79 7.79 0 0 1-.804-.061 7.8 7.8 0 0 0-.804-.062c-.472 0-.842.011-1.113.036l-.99.087c-.483 0-.725-.205-.725-.62 0-.366.228-.549.68-.549.118 0 .21.006.269.017l.268.054c.12.022.202.036.25.036.299 0 .459-.273.483-.817v-.904l-.052-4.025c-.036-.697-.213-1.046-.531-1.046-.097 0-.226.017-.392.052a2.016 2.016 0 0 1-.39.055c-.39 0-.585-.189-.585-.567 0-.414.254-.621.763-.621.117 0 .296.015.533.043.235.032.412.045.531.045.093 0 .248-.013.46-.045.096-.028.207-.043.338-.043.306 0 .46.168.46.505M68.24 38.122v-.55c-.627.863-1.556 1.294-2.784 1.294-1.396 0-2.366-.431-2.908-1.294-.237-.379-.368-.82-.392-1.33-.01-.25-.017-.767-.017-1.56V33.21c0-1.619-.173-2.43-.52-2.43-.07 0-.184.01-.339.028a3.625 3.625 0 0 1-.358.027c-.417 0-.626-.192-.626-.576 0-.373.253-.56.762-.56.118 0 .293.015.522.045.231.03.407.045.524.045.106 0 .289-.019.55-.054.177-.025.278-.036.302-.036.365 0 .548.226.548.673V31.9l-.052 1.31v1.153c0 1.029.082 1.769.248 2.216.272.746.923 1.119 1.95 1.119.509 0 .958-.116 1.348-.347.39-.231.661-.535.814-.914.19-.46.285-1.334.285-2.622v-2.129c-.06-.567-.212-.85-.46-.85h-.533c-.414 0-.62-.178-.62-.534 0-.4.23-.602.69-.602.107 0 .27.011.49.036.217.024.381.035.486.035.095 0 .236-.011.427-.035.188-.025.33-.036.425-.036.354 0 .53.19.53.569 0 .166-.01.296-.035.391-.057.45-.089 1.113-.089 1.99v2.738c0 .721.007 1.124.019 1.208.06.628.223.941.496.941.083 0 .2-.015.356-.044.152-.03.272-.043.354-.043.402 0 .602.194.602.585 0 .4-.248.602-.744.602a4.14 4.14 0 0 1-.462-.035 6.512 6.512 0 0 0-.548-.052c-.038 0-.16.01-.373.033a1.574 1.574 0 0 1-.373.054c-.33 0-.496-.171-.496-.514M73.912 28.777a.948.948 0 0 1-.7-.293.952.952 0 0 1-.292-.7c0-.27.097-.502.293-.69a.963.963 0 0 1 .699-.286.97.97 0 0 1 .7.286c.195.188.293.42.293.69a.96.96 0 0 1-.292.7.955.955 0 0 1-.701.293m.922 4.646v2.306c0 .59.006.94.017 1.045.06.532.22.798.48.798.059 0 .206-.03.443-.09a.789.789 0 0 1 .267-.035c.447 0 .673.196.673.586a.529.529 0 0 1-.222.425.869.869 0 0 1-.561.179 7.18 7.18 0 0 1-.863-.08 6.779 6.779 0 0 0-.864-.08c-.307 0-.652.024-1.03.07-.465.058-.772.09-.927.09-.474 0-.71-.202-.71-.604 0-.39.201-.586.607-.586.096 0 .235.02.42.055.184.035.326.052.421.052.287 0 .46-.379.518-1.134v-4.539c-.057-.746-.238-1.119-.535-1.119a1.91 1.91 0 0 0-.404.064c-.172.04-.3.061-.384.061-.429 0-.643-.188-.643-.566 0-.403.259-.604.779-.604.226 0 .384.005.479.018.378.047.62.071.727.071.095 0 .239-.015.434-.045.194-.03.34-.044.435-.044.343 0 .514.23.514.691 0 .047-.005.118-.015.213a23.456 23.456 0 0 0-.043 1.312c-.007.485-.013.983-.013 1.49M82.388 36.118v-1.135c.011-.485.226-.727.638-.727.413 0 .62.272.62.816 0 1.289-.164 2.187-.492 2.694-.447.686-1.18 1.03-2.201 1.03-.94 0-1.61-.303-2.008-.905-.293-.438-.44-1.182-.44-2.235v-4.254c0-.248-.116-.373-.345-.373h-.58a.656.656 0 0 1-.48-.186.606.606 0 0 1-.19-.452c0-.165.06-.313.186-.443a.565.565 0 0 1 .415-.196h.692c.201 0 .302-.112.302-.336V27.59c0-.45.231-.675.692-.675.425 0 .637.225.637.675v1.897c0 .177.108.265.32.265h1.932c.45 0 .675.207.675.62 0 .439-.242.657-.727.657h-1.95c-.166 0-.25.125-.25.373v4.362c0 1.242.414 1.862 1.242 1.862.839 0 1.275-.503 1.312-1.508M90.898 33.405v-4.308c0-.875-.298-1.313-.897-1.313a.966.966 0 0 0-.352.05c-.188.05-.34.075-.457.075a.502.502 0 0 1-.387-.175.606.606 0 0 1-.159-.427c0-.427.248-.64.746-.64.06 0 .147.006.265.02l1.224.122c.46.047.975.071 1.542.071.308 0 .97-.017 1.985-.052l2.042-.071c.27-.013.589-.032.956-.054.166-.024.343-.035.531-.035.627 0 .94.277.94.833 0 .212-.028.539-.088.975a8.01 8.01 0 0 0-.09.993c0 .189.012.425.036.709.024.283.036.544.036.78 0 .486-.213.728-.638.728-.438 0-.656-.278-.656-.83 0-.166.01-.417.026-.758.019-.343.028-.595.028-.76 0-.624-.18-1.019-.533-1.183-.354-.164-1.193-.246-2.519-.246-1.122 0-1.76.099-1.912.3-.12.155-.18.697-.18 1.631v1.313c0 .332.045.535.135.613.087.077.333.114.734.114h.586c.768 0 1.152-.284 1.152-.85 0-.13-.015-.308-.043-.533a4.207 4.207 0 0 1-.045-.513c0-.45.213-.675.638-.675.402 0 .602.261.602.781 0 .071-.013.213-.041.425l-.123.957a8.003 8.003 0 0 0-.082.958c0 .484.061 1.1.184 1.843.043.25.062.487.062.71 0 .461-.21.692-.638.692-.4 0-.602-.25-.602-.745 0-.118.01-.295.026-.532a7.18 7.18 0 0 0 .026-.53c0-.368-.098-.605-.3-.711-.13-.082-.402-.125-.816-.125h-.55c-.414 0-.668.048-.763.142-.093.093-.141.352-.141.773v2.094c0 .552.063.924.186 1.116.125.194.358.291.7.291h.78c.545 0 .817.202.817.602a.568.568 0 0 1-.187.427.635.635 0 0 1-.45.175 5.61 5.61 0 0 1-.836-.087 11.468 11.468 0 0 0-1.773-.123c-.425 0-.88.035-1.364.106l-.604.088a.536.536 0 0 0-.124.016h-.106c-.52 0-.78-.21-.78-.637 0-.377.184-.567.55-.567.046 0 .2.011.46.036.13.035.255.052.372.052.321 0 .541-.097.666-.291.125-.196.192-.54.203-1.038v-2.802zM103.86 30.568c-.828 0-1.476.29-1.95.87-.473.579-.733 1.4-.78 2.464v.23c0 1.112.234 1.984.7 2.614.468.634 1.12.951 1.96.951.862 0 1.539-.317 2.03-.95.49-.63.736-1.509.736-2.633 0-2.364-.899-3.546-2.696-3.546m-.088 8.298c-1.241 0-2.235-.427-2.98-1.285-.744-.857-1.117-2.005-1.117-3.448s.376-2.593 1.126-3.45c.751-.857 1.76-1.285 3.024-1.285 1.288 0 2.306.42 3.05 1.258.745.84 1.116 1.98 1.116 3.423s-.384 2.6-1.152 3.476c-.768.875-1.791 1.31-3.067 1.31M112.051 30.205v.487c.616-.863 1.438-1.294 2.465-1.294.827 0 1.499.233 2.013.701.515.466.77 1.066.77 1.799 0 .52-.129.943-.39 1.268-.259.326-.602.488-1.027.488a1.01 1.01 0 0 1-.691-.25.767.767 0 0 1-.286-.602c0-.188.071-.356.215-.505a.67.67 0 0 1 .496-.222c.035 0 .112.019.23.054a.885.885 0 0 0 .107-.391c0-.342-.15-.632-.453-.87-.302-.236-.677-.353-1.126-.353-.923 0-1.536.414-1.844 1.241-.19.507-.285 1.277-.285 2.304v1.171c0 .792.008 1.236.019 1.331.06.673.242 1.01.55 1.01a2 2 0 0 0 .479-.061 1.53 1.53 0 0 1 .337-.045c.377 0 .567.187.567.558 0 .408-.242.611-.725.611h-.07a7.79 7.79 0 0 1-.804-.061 7.8 7.8 0 0 0-.804-.062c-.472 0-.843.011-1.113.036l-.99.087c-.483 0-.725-.205-.725-.62 0-.366.228-.549.68-.549.118 0 .21.006.269.017l.268.054c.12.022.202.036.25.036.298 0 .459-.273.483-.817v-.904l-.052-4.025c-.036-.697-.213-1.046-.531-1.046-.097 0-.226.017-.392.052a2.016 2.016 0 0 1-.39.055c-.39 0-.585-.189-.585-.567 0-.414.254-.621.763-.621.117 0 .296.015.533.043.235.032.412.045.531.045.093 0 .248-.013.46-.045.096-.028.207-.043.338-.043.306 0 .46.168.46.505M46.341 57.502c0 .887.302 1.33.904 1.33.095 0 .237-.014.425-.046.19-.028.332-.043.427-.043a.55.55 0 0 1 .4.168.547.547 0 0 1 .167.4c0 .413-.265.62-.798.62h-.106a.66.66 0 0 0-.125-.019l-.867-.123a8.086 8.086 0 0 0-1.118-.07c-.45 0-.845.024-1.188.07l-.887.123a.46.46 0 0 0-.123.019h-.125c-.52 0-.78-.207-.78-.62 0-.38.189-.568.567-.568.095 0 .237.015.425.043.19.032.332.045.427.045.59 0 .886-.442.886-1.33v-7.199c0-.839-.431-1.258-1.294-1.258h-.55c-.852 0-1.277.414-1.277 1.242 0 .294.006.495.019.602l.07.656c.012.106.017.253.017.444 0 .743-.23 1.116-.691 1.116-.437 0-.657-.272-.657-.814 0-.155.013-.42.036-.8.035-.567.054-.927.054-1.081 0-.295-.011-.602-.03-.921-.04-.627-.06-.893-.06-.8 0-.496.224-.744.673-.744.166 0 .55.019 1.15.054.06 0 .543.024 1.453.071h2.017c.237 0 .869-.011 1.894-.032.224 0 .608-.015 1.15-.046.485-.032.861-.047 1.134-.047.59 0 .885.243.885.727v.036c0 .119-.015.337-.045.656s-.061.662-.097 1.029v.196c0 .177.019.454.054.831.047.498.07.805.07.923 0 .485-.23.727-.69.727-.451 0-.675-.297-.675-.89 0-.214.018-.533.054-.954.035-.421.052-.738.052-.952 0-.819-.468-1.229-1.4-1.229h-.498c-.436 0-.75.091-.94.274-.188.183-.294.489-.318.914l-.07 1.241v6.029zM54.763 48.409l-.071 3.454c.475-.45.908-.759 1.3-.93.39-.172.851-.258 1.386-.258 1.02 0 1.837.29 2.454.87.617.579.924 1.341.924 2.286v2.963c0 .697.006 1.08.019 1.152.046.59.201.885.46.885.094 0 .232-.033.409-.099a1.26 1.26 0 0 1 .283-.026c.436 0 .656.202.656.604 0 .401-.285.603-.852.603a6.08 6.08 0 0 1-.673-.053c-.497-.06-.898-.09-1.206-.09a5.56 5.56 0 0 0-.708.036c-.498.071-.806.107-.923.107a.774.774 0 0 1-.531-.187.595.595 0 0 1-.213-.47c0-.153.062-.283.185-.39a.654.654 0 0 1 .436-.16c.129 0 .281.032.46.09a.947.947 0 0 0 .3.054c.357 0 .54-.384.55-1.154 0-.142.013-.42.036-.833V55.144c0-1.206-.118-2.015-.356-2.43-.343-.614-.95-.922-1.816-.922-.938 0-1.618.319-2.045.958-.298.436-.453 1.141-.464 2.109v1.279c0 .07-.024.188-.071.352v.337c0 .675.006 1.065.019 1.171.06.58.236.869.527.869.099 0 .235-.026.412-.08.175-.053.306-.08.392-.08.39 0 .583.19.583.566 0 .427-.263.64-.785.64-.167 0-.417-.017-.75-.053-.452-.046-.84-.07-1.16-.07-.204 0-.483.016-.84.052-.477.048-.779.07-.91.07-.487 0-.732-.218-.732-.658 0-.363.228-.548.686-.548a.91.91 0 0 1 .343.05c.204.051.349.075.433.075.192 0 .322-.179.388-.54.067-.36.106-1.096.117-2.208v-3.172c0-1.775-.035-2.896-.106-3.362-.071-.467-.237-.7-.496-.7-.082 0-.207.018-.373.054a1.952 1.952 0 0 1-.39.052c-.4 0-.602-.189-.602-.567 0-.166.071-.308.213-.425a.77.77 0 0 1 .512-.177c.06 0 .261.017.604.052.224.024.468.036.728.036.106 0 .253-.015.443-.045a2.89 2.89 0 0 1 .407-.043c.272 0 .408.196.408.587v.036zM64.906 54.169c0 .165.13.247.39.247h4.237c.25 0 .374-.082.374-.247 0-.627-.236-1.171-.71-1.633-.473-.46-1.029-.69-1.666-.69-.662 0-1.266.238-1.81.717-.543.48-.815 1.015-.815 1.606m6.437.46c0 .45-.03.725-.09.824-.057.1-.229.151-.514.151h-5.637c-.155 0-.256.02-.302.063-.049.041-.071.108-.071.204 0 .887.266 1.625.798 2.216a2.564 2.564 0 0 0 1.985.887c.52 0 .997-.143 1.428-.426.432-.284.712-.645.843-1.082l.16-.514c.082-.284.276-.425.583-.425.438 0 .657.223.657.673 0 .77-.39 1.452-1.171 2.048a4.262 4.262 0 0 1-2.66.895c-1.24 0-2.228-.417-2.96-1.249-.733-.835-1.099-1.953-1.099-3.36 0-1.444.39-2.613 1.17-3.511.78-.899 1.796-1.348 3.049-1.348 1.111 0 2.028.373 2.75 1.117.72.744 1.08 1.69 1.08 2.837M82.211 48.902c-1.133 0-2.015.438-2.641 1.312-.626.875-.94 2.105-.94 3.688 0 1.608.314 2.852.94 3.734.626.88 1.5 1.32 2.625 1.32 1.1 0 1.97-.46 2.615-1.374.643-.916.966-2.161.966-3.733 0-1.584-.308-2.805-.923-3.663-.615-.855-1.495-1.284-2.642-1.284m-.035 11.33c-1.571 0-2.817-.568-3.732-1.702-.917-1.135-1.374-2.671-1.374-4.61 0-1.963.46-3.503 1.383-4.62.923-1.116 2.193-1.675 3.813-1.675 1.547 0 2.78.544 3.696 1.631.916 1.089 1.374 2.56 1.374 4.416 0 2.01-.464 3.606-1.392 4.788-.929 1.181-2.183 1.772-3.768 1.772M93.95 49.363c0-.166.058-.313.177-.443-.201-.189-.496-.284-.887-.284-.507 0-.906.163-1.195.489-.29.324-.436.777-.436 1.355v.319c0 .155.078.231.23.231h1.384c.39 0 .585.213.585.638 0 .425-.195.639-.585.639h-1.312c-.202 0-.302.106-.302.319v4.964c0 .438.007.692.018.763.06.318.207.479.444.479.058 0 .207-.03.442-.09.166-.022.283-.035.354-.035.403 0 .604.195.604.585 0 .414-.242.62-.727.62a8.92 8.92 0 0 1-.913-.07 8.891 8.891 0 0 0-.912-.07c-.356 0-.675.018-.958.053a9.798 9.798 0 0 1-.888.088c-.509 0-.762-.207-.762-.62a.55.55 0 0 1 .186-.41.614.614 0 0 1 .435-.176c.119 0 .251.02.399.061.147.043.281.064.399.064.223 0 .367-.142.425-.425.06-.286.095-.97.106-2.057v-3.724c0-.213-.104-.319-.315-.319h-.878c-.41 0-.615-.22-.615-.656 0-.414.214-.621.64-.621h1.01c.152 0 .23-.076.23-.231v-.319c0-.934.249-1.65.744-2.146.496-.496 1.201-.743 2.11-.743.745 0 1.343.149 1.79.45.45.303.675.707.675 1.216 0 .261-.082.47-.248.628a.858.858 0 0 1-.62.24.846.846 0 0 1-.595-.221.705.705 0 0 1-.239-.54"/>
        <path fill="#FFF" d="M100.28 49.363c0-.166.057-.313.176-.443-.201-.189-.496-.284-.887-.284-.507 0-.906.163-1.195.489-.29.324-.436.777-.436 1.355v.319c0 .155.078.231.23.231h1.384c.39 0 .585.213.585.638 0 .425-.195.639-.585.639H98.24c-.202 0-.302.106-.302.319v4.964c0 .438.007.692.018.763.06.318.207.479.444.479.058 0 .207-.03.442-.09.166-.022.283-.035.354-.035.403 0 .604.195.604.585 0 .414-.242.62-.727.62a8.92 8.92 0 0 1-.913-.07 8.891 8.891 0 0 0-.912-.07c-.356 0-.675.018-.958.053a9.798 9.798 0 0 1-.888.088c-.509 0-.762-.207-.762-.62a.55.55 0 0 1 .186-.41.614.614 0 0 1 .435-.176c.119 0 .251.02.399.061.147.043.281.064.399.064.223 0 .367-.142.425-.425.06-.286.095-.97.106-2.057v-3.724c0-.213-.105-.319-.315-.319h-.878c-.41 0-.615-.22-.615-.656 0-.414.214-.621.639-.621h1.01c.153 0 .232-.076.232-.231v-.319c0-.934.247-1.65.743-2.146s1.2-.743 2.11-.743c.744 0 1.343.149 1.79.45.45.303.675.707.675 1.216 0 .261-.082.47-.248.628a.858.858 0 0 1-.62.24.846.846 0 0 1-.595-.221.705.705 0 0 1-.239-.54"/>
        <path fill="#FFF" d="M103.612 50.054a.948.948 0 0 1-.7-.292.952.952 0 0 1-.292-.701c0-.27.097-.502.292-.69a.963.963 0 0 1 .7-.285.97.97 0 0 1 .7.285c.194.188.293.42.293.69a.96.96 0 0 1-.293.7.955.955 0 0 1-.7.293m.922 4.646v2.306c0 .59.006.94.017 1.046.06.531.22.798.48.798.059 0 .206-.03.443-.09a.789.789 0 0 1 .266-.035c.448 0 .673.195.673.585a.529.529 0 0 1-.221.425.869.869 0 0 1-.562.179 7.18 7.18 0 0 1-.863-.08 6.779 6.779 0 0 0-.863-.08c-.307 0-.652.024-1.03.07-.465.058-.772.09-.927.09-.474 0-.71-.201-.71-.604 0-.39.2-.585.607-.585.095 0 .235.018.42.054.184.035.326.054.421.054.287 0 .46-.38.518-1.136v-4.539c-.058-.746-.238-1.118-.535-1.118a1.91 1.91 0 0 0-.404.063c-.172.041-.3.062-.384.062-.43 0-.643-.189-.643-.567 0-.403.259-.604.779-.604.225 0 .384.005.479.018.378.047.62.071.727.071.095 0 .239-.015.434-.044.194-.03.34-.045.435-.045.343 0 .514.231.514.691 0 .047-.005.118-.015.213a23.456 23.456 0 0 0-.043 1.312c-.007.485-.013.983-.013 1.49M112.318 53.991c0-.472.296-.744.887-.815a1.382 1.382 0 0 0-.594-.976c-.336-.235-.772-.355-1.303-.355-.815 0-1.473.325-1.969.975-.496.651-.744 1.514-.744 2.59 0 1.11.233 1.983.7 2.615.467.632 1.114.95 1.942.95.52 0 .971-.15 1.355-.445.386-.296.649-.702.79-1.224.118-.412.189-.65.213-.709.129-.237.319-.354.567-.354.201 0 .367.065.498.196a.673.673 0 0 1 .193.496c0 .294-.093.65-.283 1.062-.19.416-.414.757-.673 1.03-.697.745-1.603 1.116-2.712 1.116-1.206 0-2.18-.425-2.918-1.275-.74-.852-1.109-1.969-1.109-3.352 0-1.465.382-2.64 1.145-3.52.762-.88 1.774-1.321 3.04-1.321.945 0 1.732.257 2.358.771.627.515.94 1.167.94 1.96 0 .438-.121.798-.364 1.081a1.173 1.173 0 0 1-.93.427c-.296 0-.54-.09-.736-.267a.848.848 0 0 1-.293-.656M117.814 54.169c0 .165.13.247.39.247h4.237c.25 0 .375-.082.375-.247 0-.627-.237-1.171-.71-1.633-.474-.46-1.028-.69-1.667-.69-.662 0-1.266.238-1.81.717-.543.48-.815 1.015-.815 1.606m6.437.46c0 .45-.03.725-.09.824-.057.1-.229.151-.514.151h-5.637c-.155 0-.256.02-.302.063-.049.041-.071.108-.071.204 0 .887.267 1.625.798 2.216a2.564 2.564 0 0 0 1.985.887c.52 0 .998-.143 1.428-.426.433-.284.712-.645.843-1.082l.16-.514c.082-.284.276-.425.584-.425.438 0 .656.223.656.673 0 .77-.39 1.452-1.17 2.048a4.26 4.26 0 0 1-2.66.895c-1.24 0-2.229-.417-2.961-1.249-.733-.835-1.098-1.953-1.098-3.36 0-1.444.39-2.613 1.168-3.511.782-.899 1.798-1.348 3.05-1.348 1.111 0 2.029.373 2.75 1.117.72.744 1.081 1.69 1.081 2.837"/>
    </g>
</svg>
