<svg xmlns="http://www.w3.org/2000/svg" width="40" height="42" viewBox="0 0 40 42">
    <g fill="none" fill-rule="evenodd">
        <path fill="#651D5A" d="M23.074 11.2c-1.271.085-2.544.155-3.814.258-2.154.175-4.2.741-6.148 1.65-3.492 1.628-5.75 4.335-7.182 7.761-.851 2.037-1.32 4.16-1.523 6.348-.035.369.058.534.421.652 3.107 1.007 6.259 1.84 9.493 2.364 2.962.48 5.935.73 8.936.45 1.524-.143 3.017-.428 4.452-.964 2.842-1.062 4.883-2.975 6.3-5.567 1.812-3.314 2.492-6.884 2.591-10.592.009-.34-.178-.446-.46-.51-1.265-.294-2.521-.634-3.797-.876a55.395 55.395 0 0 0-9.269-.974m-1.992 21c-3.468-.071-6.573-.403-9.61-1.142-2.475-.602-4.92-1.324-7.36-2.05-1.336-.397-1.128-.288-1.056-1.486.189-3.155.966-6.157 2.458-8.968 1.287-2.424 3.102-4.376 5.436-5.911 2.475-1.629 5.245-2.309 8.14-2.608 1.578-.164 3.174-.261 4.76-.229 3.832.078 7.615.595 11.347 1.46.794.184 1.583.393 2.375.586.275.067.408.2.416.503.116 4.222-.59 8.274-2.534 12.087-1.343 2.634-3.284 4.694-5.988 6.022-1.86.914-3.856 1.382-5.924 1.563-.93.08-1.861.131-2.46.173"/>
        <text fill="#333" font-family="Helvetica-Light, Helvetica" font-size="17" font-weight="300">
            <tspan x="15.274" y="27">3</tspan>
        </text>
    </g>
</svg>
